<mxfile host="app.diagrams.net" agent="Mozilla/5.0 (Windows NT 10.0; Win64; x64; rv:133.0) Gecko/20100101 Firefox/133.0" version="26.0.2">
  <diagram name="Page-1" id="XZAFBlyORnrVtDnmXbAU">
    <mxGraphModel dx="1105" dy="528" grid="1" gridSize="10" guides="1" tooltips="1" connect="1" arrows="1" fold="1" page="1" pageScale="1" pageWidth="827" pageHeight="1169" math="0" shadow="0">
      <root>
        <mxCell id="0" />
        <mxCell id="1" parent="0" />
        <mxCell id="d7eNQ9OL8v74GyWX1Dy4-60" value="" style="rounded=0;whiteSpace=wrap;html=1;fillColor=#e6d0de;strokeColor=#996185;gradientColor=#d5739d;" parent="1" vertex="1">
          <mxGeometry x="160" y="160" width="1260" height="950" as="geometry" />
        </mxCell>
        <mxCell id="d7eNQ9OL8v74GyWX1Dy4-15" style="rounded=0;orthogonalLoop=1;jettySize=auto;html=1;exitX=0.5;exitY=0.5;exitDx=0;exitDy=0;exitPerimeter=0;entryX=0;entryY=0.5;entryDx=0;entryDy=0;endArrow=none;endFill=0;" parent="1" source="d7eNQ9OL8v74GyWX1Dy4-2" target="d7eNQ9OL8v74GyWX1Dy4-9" edge="1">
          <mxGeometry relative="1" as="geometry" />
        </mxCell>
        <mxCell id="d7eNQ9OL8v74GyWX1Dy4-16" style="rounded=0;orthogonalLoop=1;jettySize=auto;html=1;exitX=0.5;exitY=0.5;exitDx=0;exitDy=0;exitPerimeter=0;entryX=0;entryY=0.5;entryDx=0;entryDy=0;endArrow=none;endFill=0;" parent="1" source="d7eNQ9OL8v74GyWX1Dy4-2" target="mXnY6jxnswvBho21JtFF-2" edge="1">
          <mxGeometry relative="1" as="geometry">
            <mxPoint x="260" y="620" as="targetPoint" />
          </mxGeometry>
        </mxCell>
        <mxCell id="d7eNQ9OL8v74GyWX1Dy4-18" style="rounded=0;orthogonalLoop=1;jettySize=auto;html=1;exitX=0.5;exitY=0.5;exitDx=0;exitDy=0;exitPerimeter=0;entryX=0;entryY=0.5;entryDx=0;entryDy=0;endArrow=none;endFill=0;" parent="1" source="d7eNQ9OL8v74GyWX1Dy4-2" target="d7eNQ9OL8v74GyWX1Dy4-3" edge="1">
          <mxGeometry relative="1" as="geometry" />
        </mxCell>
        <mxCell id="d7eNQ9OL8v74GyWX1Dy4-19" style="rounded=0;orthogonalLoop=1;jettySize=auto;html=1;exitX=0.5;exitY=0.5;exitDx=0;exitDy=0;exitPerimeter=0;endArrow=none;endFill=0;entryX=0;entryY=0.5;entryDx=0;entryDy=0;" parent="1" source="d7eNQ9OL8v74GyWX1Dy4-2" target="mXnY6jxnswvBho21JtFF-3" edge="1">
          <mxGeometry relative="1" as="geometry">
            <mxPoint x="350" y="765" as="targetPoint" />
          </mxGeometry>
        </mxCell>
        <mxCell id="d7eNQ9OL8v74GyWX1Dy4-26" style="rounded=0;orthogonalLoop=1;jettySize=auto;html=1;exitX=0.5;exitY=0.5;exitDx=0;exitDy=0;exitPerimeter=0;entryX=0;entryY=0.5;entryDx=0;entryDy=0;endArrow=none;endFill=0;" parent="1" source="d7eNQ9OL8v74GyWX1Dy4-2" target="mXnY6jxnswvBho21JtFF-4" edge="1">
          <mxGeometry relative="1" as="geometry">
            <mxPoint x="260" y="855" as="targetPoint" />
          </mxGeometry>
        </mxCell>
        <mxCell id="d7eNQ9OL8v74GyWX1Dy4-2" value="Employee" style="shape=umlActor;verticalLabelPosition=bottom;verticalAlign=top;html=1;" parent="1" vertex="1">
          <mxGeometry x="60" y="355" width="30" height="60" as="geometry" />
        </mxCell>
        <mxCell id="d7eNQ9OL8v74GyWX1Dy4-41" style="edgeStyle=orthogonalEdgeStyle;rounded=0;orthogonalLoop=1;jettySize=auto;html=1;exitX=0.499;exitY=1.048;exitDx=0;exitDy=0;entryX=0;entryY=0.5;entryDx=0;entryDy=0;dashed=1;exitPerimeter=0;" parent="1" target="d7eNQ9OL8v74GyWX1Dy4-38" edge="1">
          <mxGeometry relative="1" as="geometry">
            <Array as="points">
              <mxPoint x="420" y="803" />
              <mxPoint x="420" y="945" />
            </Array>
            <mxPoint x="419.8599999999999" y="803.3599999999999" as="sourcePoint" />
          </mxGeometry>
        </mxCell>
        <mxCell id="d7eNQ9OL8v74GyWX1Dy4-43" style="edgeStyle=orthogonalEdgeStyle;rounded=0;orthogonalLoop=1;jettySize=auto;html=1;exitX=1;exitY=0.5;exitDx=0;exitDy=0;entryX=1;entryY=0.5;entryDx=0;entryDy=0;dashed=1;" parent="1" source="d7eNQ9OL8v74GyWX1Dy4-20" edge="1">
          <mxGeometry relative="1" as="geometry">
            <mxPoint x="580" y="365" as="targetPoint" />
          </mxGeometry>
        </mxCell>
        <mxCell id="d7eNQ9OL8v74GyWX1Dy4-44" value="include" style="edgeLabel;html=1;align=center;verticalAlign=middle;resizable=0;points=[];" parent="d7eNQ9OL8v74GyWX1Dy4-43" vertex="1" connectable="0">
          <mxGeometry x="0.0503" y="-2" relative="1" as="geometry">
            <mxPoint as="offset" />
          </mxGeometry>
        </mxCell>
        <mxCell id="d7eNQ9OL8v74GyWX1Dy4-54" style="rounded=0;orthogonalLoop=1;jettySize=auto;html=1;exitX=0;exitY=0;exitDx=0;exitDy=0;dashed=1;entryX=0.478;entryY=0.988;entryDx=0;entryDy=0;entryPerimeter=0;" parent="1" source="d7eNQ9OL8v74GyWX1Dy4-20" edge="1">
          <mxGeometry relative="1" as="geometry">
            <mxPoint x="326.9200000000001" y="654.1600000000001" as="targetPoint" />
          </mxGeometry>
        </mxCell>
        <mxCell id="d7eNQ9OL8v74GyWX1Dy4-42" style="edgeStyle=orthogonalEdgeStyle;rounded=0;orthogonalLoop=1;jettySize=auto;html=1;exitX=0.991;exitY=0.534;exitDx=0;exitDy=0;exitPerimeter=0;entryX=0;entryY=0.5;entryDx=0;entryDy=0;dashed=1;" parent="1" target="d7eNQ9OL8v74GyWX1Dy4-38" edge="1">
          <mxGeometry relative="1" as="geometry">
            <mxPoint x="450" y="712.5" as="targetPoint" />
            <mxPoint x="398.74" y="857.3800000000001" as="sourcePoint" />
          </mxGeometry>
        </mxCell>
        <mxCell id="d7eNQ9OL8v74GyWX1Dy4-45" value="include" style="edgeLabel;html=1;align=center;verticalAlign=middle;resizable=0;points=[];" parent="d7eNQ9OL8v74GyWX1Dy4-42" vertex="1" connectable="0">
          <mxGeometry x="-0.2306" y="-2" relative="1" as="geometry">
            <mxPoint x="3" y="-41" as="offset" />
          </mxGeometry>
        </mxCell>
        <mxCell id="d7eNQ9OL8v74GyWX1Dy4-49" style="edgeStyle=orthogonalEdgeStyle;rounded=0;orthogonalLoop=1;jettySize=auto;html=1;exitX=0;exitY=0.5;exitDx=0;exitDy=0;entryX=1;entryY=0.5;entryDx=0;entryDy=0;endArrow=block;endFill=0;" parent="1" source="d7eNQ9OL8v74GyWX1Dy4-24" edge="1">
          <mxGeometry relative="1" as="geometry">
            <mxPoint x="400" y="620" as="targetPoint" />
          </mxGeometry>
        </mxCell>
        <mxCell id="d7eNQ9OL8v74GyWX1Dy4-32" style="edgeStyle=orthogonalEdgeStyle;rounded=0;orthogonalLoop=1;jettySize=auto;html=1;exitX=0;exitY=0.5;exitDx=0;exitDy=0;entryX=0.5;entryY=1;entryDx=0;entryDy=0;dashed=1;" parent="1" edge="1">
          <mxGeometry relative="1" as="geometry">
            <mxPoint x="450" y="195" as="sourcePoint" />
          </mxGeometry>
        </mxCell>
        <mxCell id="d7eNQ9OL8v74GyWX1Dy4-48" style="edgeStyle=orthogonalEdgeStyle;rounded=0;orthogonalLoop=1;jettySize=auto;html=1;exitX=0;exitY=0.5;exitDx=0;exitDy=0;entryX=1;entryY=0.5;entryDx=0;entryDy=0;endArrow=block;endFill=0;" parent="1" target="d7eNQ9OL8v74GyWX1Dy4-4" edge="1">
          <mxGeometry relative="1" as="geometry">
            <mxPoint x="440" y="575" as="sourcePoint" />
          </mxGeometry>
        </mxCell>
        <mxCell id="d7eNQ9OL8v74GyWX1Dy4-56" style="edgeStyle=orthogonalEdgeStyle;rounded=0;orthogonalLoop=1;jettySize=auto;html=1;exitX=0.5;exitY=0;exitDx=0;exitDy=0;entryX=0.498;entryY=0.953;entryDx=0;entryDy=0;entryPerimeter=0;dashed=1;" parent="1" source="d7eNQ9OL8v74GyWX1Dy4-23" edge="1">
          <mxGeometry relative="1" as="geometry">
            <mxPoint x="329.72" y="651.71" as="targetPoint" />
          </mxGeometry>
        </mxCell>
        <mxCell id="d7eNQ9OL8v74GyWX1Dy4-58" value="" style="swimlane;startSize=0;fillColor=#E51400;fontColor=#ffffff;strokeColor=default;fillStyle=solid;rounded=0;glass=0;" parent="1" vertex="1">
          <mxGeometry x="160" y="160" width="1260" height="950" as="geometry" />
        </mxCell>
        <mxCell id="mXnY6jxnswvBho21JtFF-3" value="Selects an Event" style="ellipse;whiteSpace=wrap;html=1;fillColor=#d0cee2;strokeColor=#56517e;" vertex="1" parent="d7eNQ9OL8v74GyWX1Dy4-58">
          <mxGeometry x="220" y="310" width="140" height="70" as="geometry" />
        </mxCell>
        <mxCell id="mXnY6jxnswvBho21JtFF-6" value="&lt;div&gt;exit&lt;/div&gt;&lt;div&gt;process&lt;br&gt;&lt;/div&gt;" style="text;html=1;align=center;verticalAlign=middle;whiteSpace=wrap;rounded=0;" vertex="1" parent="d7eNQ9OL8v74GyWX1Dy4-58">
          <mxGeometry x="370" y="360" width="30" height="10" as="geometry" />
        </mxCell>
        <mxCell id="mXnY6jxnswvBho21JtFF-16" style="edgeStyle=orthogonalEdgeStyle;rounded=0;orthogonalLoop=1;jettySize=auto;html=1;endArrow=block;endFill=1;entryX=0.5;entryY=1;entryDx=0;entryDy=0;exitX=0.5;exitY=0;exitDx=0;exitDy=0;" edge="1" parent="d7eNQ9OL8v74GyWX1Dy4-58" source="mXnY6jxnswvBho21JtFF-11" target="mXnY6jxnswvBho21JtFF-7">
          <mxGeometry relative="1" as="geometry" />
        </mxCell>
        <mxCell id="mXnY6jxnswvBho21JtFF-7" value="YES" style="ellipse;whiteSpace=wrap;html=1;fillColor=#d0cee2;strokeColor=#56517e;" vertex="1" parent="d7eNQ9OL8v74GyWX1Dy4-58">
          <mxGeometry x="90" y="480" width="140" height="70" as="geometry" />
        </mxCell>
        <mxCell id="mXnY6jxnswvBho21JtFF-31" style="edgeStyle=orthogonalEdgeStyle;rounded=0;orthogonalLoop=1;jettySize=auto;html=1;exitX=0.5;exitY=1;exitDx=0;exitDy=0;entryX=0.5;entryY=0;entryDx=0;entryDy=0;dashed=1;" edge="1" parent="d7eNQ9OL8v74GyWX1Dy4-58" source="mXnY6jxnswvBho21JtFF-11" target="mXnY6jxnswvBho21JtFF-30">
          <mxGeometry relative="1" as="geometry" />
        </mxCell>
        <mxCell id="mXnY6jxnswvBho21JtFF-11" value="&lt;div&gt;System changes status &lt;br&gt;&lt;/div&gt;&lt;div&gt;-&amp;gt; Approved&lt;br&gt;&lt;/div&gt;" style="ellipse;whiteSpace=wrap;html=1;fillColor=#d0cee2;strokeColor=#56517e;" vertex="1" parent="d7eNQ9OL8v74GyWX1Dy4-58">
          <mxGeometry x="20" y="610" width="140" height="70" as="geometry" />
        </mxCell>
        <mxCell id="mXnY6jxnswvBho21JtFF-4" value="decides whether he approve or not or exit process" style="ellipse;whiteSpace=wrap;html=1;fillColor=#d0cee2;strokeColor=#56517e;" vertex="1" parent="d7eNQ9OL8v74GyWX1Dy4-58">
          <mxGeometry x="220" y="410" width="140" height="70" as="geometry" />
        </mxCell>
        <mxCell id="mXnY6jxnswvBho21JtFF-9" style="edgeStyle=orthogonalEdgeStyle;rounded=0;orthogonalLoop=1;jettySize=auto;html=1;exitX=0.5;exitY=1;exitDx=0;exitDy=0;entryX=0.5;entryY=0;entryDx=0;entryDy=0;endArrow=classic;endFill=1;dashed=1;" edge="1" parent="d7eNQ9OL8v74GyWX1Dy4-58" source="mXnY6jxnswvBho21JtFF-3" target="mXnY6jxnswvBho21JtFF-4">
          <mxGeometry relative="1" as="geometry" />
        </mxCell>
        <mxCell id="mXnY6jxnswvBho21JtFF-13" value="" style="edgeStyle=orthogonalEdgeStyle;rounded=0;orthogonalLoop=1;jettySize=auto;html=1;endArrow=block;endFill=1;entryX=0.5;entryY=1;entryDx=0;entryDy=0;exitX=1;exitY=0.5;exitDx=0;exitDy=0;" edge="1" parent="d7eNQ9OL8v74GyWX1Dy4-58" source="mXnY6jxnswvBho21JtFF-7" target="mXnY6jxnswvBho21JtFF-4">
          <mxGeometry relative="1" as="geometry">
            <mxPoint x="210" y="535" as="sourcePoint" />
          </mxGeometry>
        </mxCell>
        <mxCell id="d7eNQ9OL8v74GyWX1Dy4-9" value="View List of Events" style="ellipse;whiteSpace=wrap;html=1;fillColor=#d0cee2;strokeColor=#56517e;" parent="d7eNQ9OL8v74GyWX1Dy4-58" vertex="1">
          <mxGeometry x="220" y="20" width="140" height="70" as="geometry" />
        </mxCell>
        <mxCell id="mXnY6jxnswvBho21JtFF-32" style="edgeStyle=orthogonalEdgeStyle;rounded=0;orthogonalLoop=1;jettySize=auto;html=1;exitX=0.5;exitY=1;exitDx=0;exitDy=0;entryX=0.5;entryY=0;entryDx=0;entryDy=0;dashed=1;" edge="1" parent="d7eNQ9OL8v74GyWX1Dy4-58" source="mXnY6jxnswvBho21JtFF-10" target="mXnY6jxnswvBho21JtFF-30">
          <mxGeometry relative="1" as="geometry">
            <mxPoint x="140" y="710" as="targetPoint" />
          </mxGeometry>
        </mxCell>
        <mxCell id="mXnY6jxnswvBho21JtFF-10" value="&lt;div&gt;&lt;div&gt;System changes status &lt;br&gt;&lt;/div&gt;&lt;div&gt;-&amp;gt; Deleted&lt;br&gt;&lt;/div&gt;&lt;/div&gt;" style="ellipse;whiteSpace=wrap;html=1;fillColor=#d0cee2;strokeColor=#56517e;" vertex="1" parent="d7eNQ9OL8v74GyWX1Dy4-58">
          <mxGeometry x="184" y="610" width="140" height="70" as="geometry" />
        </mxCell>
        <mxCell id="mXnY6jxnswvBho21JtFF-17" style="edgeStyle=orthogonalEdgeStyle;rounded=0;orthogonalLoop=1;jettySize=auto;html=1;exitX=0.5;exitY=0;exitDx=0;exitDy=0;entryX=0.5;entryY=1;entryDx=0;entryDy=0;endArrow=block;endFill=1;" edge="1" parent="d7eNQ9OL8v74GyWX1Dy4-58" source="mXnY6jxnswvBho21JtFF-10" target="mXnY6jxnswvBho21JtFF-7">
          <mxGeometry relative="1" as="geometry" />
        </mxCell>
        <mxCell id="mXnY6jxnswvBho21JtFF-19" value="tobeApproved" style="text;html=1;align=center;verticalAlign=middle;whiteSpace=wrap;rounded=0;" vertex="1" parent="d7eNQ9OL8v74GyWX1Dy4-58">
          <mxGeometry x="70" y="560" width="60" height="30" as="geometry" />
        </mxCell>
        <mxCell id="mXnY6jxnswvBho21JtFF-30" value="&lt;div&gt;System informs&amp;nbsp;&lt;/div&gt;&lt;div&gt;organizer of success&lt;/div&gt;" style="ellipse;whiteSpace=wrap;html=1;fillColor=#d0cee2;strokeColor=#56517e;" vertex="1" parent="d7eNQ9OL8v74GyWX1Dy4-58">
          <mxGeometry x="85" y="740" width="145" height="80" as="geometry" />
        </mxCell>
        <mxCell id="mXnY6jxnswvBho21JtFF-2" value="&lt;div&gt;View List of Active Requests&lt;/div&gt;" style="ellipse;whiteSpace=wrap;html=1;fillColor=#d0cee2;strokeColor=#56517e;" vertex="1" parent="d7eNQ9OL8v74GyWX1Dy4-58">
          <mxGeometry x="220" y="220" width="140" height="70" as="geometry" />
        </mxCell>
        <mxCell id="mXnY6jxnswvBho21JtFF-5" style="edgeStyle=orthogonalEdgeStyle;rounded=0;orthogonalLoop=1;jettySize=auto;html=1;exitX=1;exitY=0.5;exitDx=0;exitDy=0;entryX=1;entryY=0.5;entryDx=0;entryDy=0;dashed=1;" edge="1" parent="d7eNQ9OL8v74GyWX1Dy4-58" source="mXnY6jxnswvBho21JtFF-4" target="mXnY6jxnswvBho21JtFF-2">
          <mxGeometry relative="1" as="geometry" />
        </mxCell>
        <mxCell id="mXnY6jxnswvBho21JtFF-8" style="edgeStyle=orthogonalEdgeStyle;rounded=0;orthogonalLoop=1;jettySize=auto;html=1;exitX=0.5;exitY=1;exitDx=0;exitDy=0;entryX=0.5;entryY=0;entryDx=0;entryDy=0;endArrow=classic;endFill=1;dashed=1;" edge="1" parent="d7eNQ9OL8v74GyWX1Dy4-58" source="mXnY6jxnswvBho21JtFF-2" target="mXnY6jxnswvBho21JtFF-3">
          <mxGeometry relative="1" as="geometry" />
        </mxCell>
        <mxCell id="d7eNQ9OL8v74GyWX1Dy4-3" value="&lt;div&gt;filter to view&amp;nbsp;&lt;/div&gt;&lt;div&gt;only Requests&lt;/div&gt;" style="ellipse;whiteSpace=wrap;html=1;fillColor=#d0cee2;strokeColor=#56517e;" parent="d7eNQ9OL8v74GyWX1Dy4-58" vertex="1">
          <mxGeometry x="220" y="125" width="140" height="70" as="geometry" />
        </mxCell>
        <mxCell id="d7eNQ9OL8v74GyWX1Dy4-52" style="edgeStyle=orthogonalEdgeStyle;rounded=0;orthogonalLoop=1;jettySize=auto;html=1;exitX=0.5;exitY=0;exitDx=0;exitDy=0;entryX=0.5;entryY=1;entryDx=0;entryDy=0;dashed=1;" parent="d7eNQ9OL8v74GyWX1Dy4-58" source="d7eNQ9OL8v74GyWX1Dy4-3" target="d7eNQ9OL8v74GyWX1Dy4-9" edge="1">
          <mxGeometry relative="1" as="geometry" />
        </mxCell>
        <mxCell id="d7eNQ9OL8v74GyWX1Dy4-53" value="extend" style="edgeLabel;html=1;align=center;verticalAlign=middle;resizable=0;points=[];" parent="d7eNQ9OL8v74GyWX1Dy4-52" vertex="1" connectable="0">
          <mxGeometry x="-0.0926" relative="1" as="geometry">
            <mxPoint x="20" y="4" as="offset" />
          </mxGeometry>
        </mxCell>
        <mxCell id="d7eNQ9OL8v74GyWX1Dy4-51" style="rounded=0;orthogonalLoop=1;jettySize=auto;html=1;entryX=0.5;entryY=0;entryDx=0;entryDy=0;dashed=1;exitX=0.5;exitY=1;exitDx=0;exitDy=0;" parent="d7eNQ9OL8v74GyWX1Dy4-58" source="d7eNQ9OL8v74GyWX1Dy4-3" target="mXnY6jxnswvBho21JtFF-2" edge="1">
          <mxGeometry relative="1" as="geometry">
            <mxPoint x="214" y="233.88777777777767" as="sourcePoint" />
            <mxPoint x="344" y="436.11" as="targetPoint" />
          </mxGeometry>
        </mxCell>
        <mxCell id="mXnY6jxnswvBho21JtFF-18" value="" style="edgeStyle=orthogonalEdgeStyle;rounded=0;orthogonalLoop=1;jettySize=auto;html=1;exitX=0.5;exitY=0;exitDx=0;exitDy=0;" edge="1" parent="d7eNQ9OL8v74GyWX1Dy4-58" source="d7eNQ9OL8v74GyWX1Dy4-3" target="d7eNQ9OL8v74GyWX1Dy4-9">
          <mxGeometry relative="1" as="geometry">
            <mxPoint x="284" y="100" as="sourcePoint" />
          </mxGeometry>
        </mxCell>
        <mxCell id="mXnY6jxnswvBho21JtFF-25" value="tobeApproved" style="text;html=1;align=center;verticalAlign=middle;whiteSpace=wrap;rounded=0;" vertex="1" parent="d7eNQ9OL8v74GyWX1Dy4-58">
          <mxGeometry x="390" y="560" width="60" height="30" as="geometry" />
        </mxCell>
        <mxCell id="mXnY6jxnswvBho21JtFF-26" value="tobeDeleted" style="text;html=1;align=center;verticalAlign=middle;whiteSpace=wrap;rounded=0;" vertex="1" parent="d7eNQ9OL8v74GyWX1Dy4-58">
          <mxGeometry x="510" y="560" width="60" height="30" as="geometry" />
        </mxCell>
        <mxCell id="mXnY6jxnswvBho21JtFF-20" value="tobeDeleted" style="text;html=1;align=center;verticalAlign=middle;whiteSpace=wrap;rounded=0;" vertex="1" parent="d7eNQ9OL8v74GyWX1Dy4-58">
          <mxGeometry x="200" y="560" width="60" height="30" as="geometry" />
        </mxCell>
        <mxCell id="mXnY6jxnswvBho21JtFF-33" value="System saves details of ApprovalRequest to the request of the Event" style="ellipse;whiteSpace=wrap;html=1;fillColor=#d0cee2;strokeColor=#56517e;" vertex="1" parent="d7eNQ9OL8v74GyWX1Dy4-58">
          <mxGeometry x="240" y="810" width="160" height="90" as="geometry" />
        </mxCell>
        <mxCell id="mXnY6jxnswvBho21JtFF-34" style="edgeStyle=orthogonalEdgeStyle;rounded=0;orthogonalLoop=1;jettySize=auto;html=1;exitX=0.5;exitY=1;exitDx=0;exitDy=0;entryX=0;entryY=0.5;entryDx=0;entryDy=0;dashed=1;" edge="1" parent="d7eNQ9OL8v74GyWX1Dy4-58" source="mXnY6jxnswvBho21JtFF-30" target="mXnY6jxnswvBho21JtFF-33">
          <mxGeometry relative="1" as="geometry" />
        </mxCell>
        <mxCell id="mXnY6jxnswvBho21JtFF-14" value="NO" style="ellipse;whiteSpace=wrap;html=1;fillColor=#d0cee2;strokeColor=#56517e;" vertex="1" parent="1">
          <mxGeometry x="570" y="640" width="140" height="70" as="geometry" />
        </mxCell>
        <mxCell id="mXnY6jxnswvBho21JtFF-15" style="edgeStyle=orthogonalEdgeStyle;rounded=0;orthogonalLoop=1;jettySize=auto;html=1;exitX=0;exitY=0.5;exitDx=0;exitDy=0;entryX=0.5;entryY=1;entryDx=0;entryDy=0;endArrow=block;endFill=1;" edge="1" parent="1" source="mXnY6jxnswvBho21JtFF-14" target="mXnY6jxnswvBho21JtFF-4">
          <mxGeometry relative="1" as="geometry">
            <Array as="points">
              <mxPoint x="450" y="675" />
            </Array>
          </mxGeometry>
        </mxCell>
        <mxCell id="mXnY6jxnswvBho21JtFF-21" style="edgeStyle=orthogonalEdgeStyle;rounded=0;orthogonalLoop=1;jettySize=auto;html=1;exitX=0.5;exitY=0;exitDx=0;exitDy=0;endArrow=block;endFill=1;entryX=0.5;entryY=1;entryDx=0;entryDy=0;" edge="1" parent="1" target="mXnY6jxnswvBho21JtFF-14" source="mXnY6jxnswvBho21JtFF-22">
          <mxGeometry relative="1" as="geometry">
            <mxPoint x="638" y="740" as="targetPoint" />
          </mxGeometry>
        </mxCell>
        <mxCell id="mXnY6jxnswvBho21JtFF-28" style="edgeStyle=orthogonalEdgeStyle;rounded=0;orthogonalLoop=1;jettySize=auto;html=1;exitX=0.5;exitY=1;exitDx=0;exitDy=0;entryX=0.5;entryY=0;entryDx=0;entryDy=0;dashed=1;" edge="1" parent="1" source="mXnY6jxnswvBho21JtFF-22" target="mXnY6jxnswvBho21JtFF-27">
          <mxGeometry relative="1" as="geometry" />
        </mxCell>
        <mxCell id="mXnY6jxnswvBho21JtFF-22" value="&lt;div&gt;System changes status &lt;br&gt;&lt;/div&gt;&lt;div&gt;-&amp;gt; Denied&lt;br&gt;&lt;/div&gt;" style="ellipse;whiteSpace=wrap;html=1;fillColor=#d0cee2;strokeColor=#56517e;" vertex="1" parent="1">
          <mxGeometry x="498" y="770" width="140" height="70" as="geometry" />
        </mxCell>
        <mxCell id="mXnY6jxnswvBho21JtFF-29" style="edgeStyle=orthogonalEdgeStyle;rounded=0;orthogonalLoop=1;jettySize=auto;html=1;exitX=0.5;exitY=1;exitDx=0;exitDy=0;entryX=0.5;entryY=0;entryDx=0;entryDy=0;dashed=1;" edge="1" parent="1" source="mXnY6jxnswvBho21JtFF-23" target="mXnY6jxnswvBho21JtFF-27">
          <mxGeometry relative="1" as="geometry">
            <mxPoint x="640" y="860" as="targetPoint" />
            <Array as="points">
              <mxPoint x="720" y="870" />
              <mxPoint x="646" y="870" />
            </Array>
          </mxGeometry>
        </mxCell>
        <mxCell id="mXnY6jxnswvBho21JtFF-23" value="&lt;div&gt;&lt;div&gt;...&lt;br&gt;&lt;/div&gt;&lt;/div&gt;" style="ellipse;whiteSpace=wrap;html=1;fillColor=#d0cee2;strokeColor=#56517e;" vertex="1" parent="1">
          <mxGeometry x="650" y="770" width="140" height="70" as="geometry" />
        </mxCell>
        <mxCell id="mXnY6jxnswvBho21JtFF-24" style="edgeStyle=orthogonalEdgeStyle;rounded=0;orthogonalLoop=1;jettySize=auto;html=1;exitX=0.5;exitY=0;exitDx=0;exitDy=0;entryX=0.5;entryY=1;entryDx=0;entryDy=0;endArrow=block;endFill=1;" edge="1" parent="1" target="mXnY6jxnswvBho21JtFF-14" source="mXnY6jxnswvBho21JtFF-23">
          <mxGeometry relative="1" as="geometry">
            <mxPoint x="638" y="740" as="targetPoint" />
          </mxGeometry>
        </mxCell>
        <mxCell id="mXnY6jxnswvBho21JtFF-35" style="edgeStyle=orthogonalEdgeStyle;rounded=0;orthogonalLoop=1;jettySize=auto;html=1;exitX=0.5;exitY=1;exitDx=0;exitDy=0;entryX=1;entryY=0.5;entryDx=0;entryDy=0;dashed=1;" edge="1" parent="1" source="mXnY6jxnswvBho21JtFF-27" target="mXnY6jxnswvBho21JtFF-33">
          <mxGeometry relative="1" as="geometry" />
        </mxCell>
        <mxCell id="mXnY6jxnswvBho21JtFF-27" value="System infroms organizer of rejection and sends comment of Employee" style="ellipse;whiteSpace=wrap;html=1;fillColor=#d0cee2;strokeColor=#56517e;" vertex="1" parent="1">
          <mxGeometry x="550" y="900" width="192" height="90" as="geometry" />
        </mxCell>
      </root>
    </mxGraphModel>
  </diagram>
</mxfile>
